<svg id="Avatar" height="512" viewBox="0 0 64 64" width="512" xmlns="http://www.w3.org/2000/svg"><path d="m20 45h24a8 8 0 0 1 8 8v8a0 0 0 0 1 0 0h-40a0 0 0 0 1 0 0v-8a8 8 0 0 1 8-8z" fill="#4a80aa"/><path d="m32 50a5.658 5.658 0 0 1 -5.648-5.99l.648-11.01h10l.648 11.01a5.658 5.658 0 0 1 -5.648 5.99z" fill="#ffcbbe"/><rect fill="#ffddce" height="36" rx="13" width="26" x="19" y="6"/><path d="m17 19h2a0 0 0 0 1 0 0v7a0 0 0 0 1 0 0h-2a2 2 0 0 1 -2-2v-3a2 2 0 0 1 2-2z" fill="#ffcbbe"/><path d="m47 19h2a0 0 0 0 1 0 0v7a0 0 0 0 1 0 0h-2a2 2 0 0 1 -2-2v-3a2 2 0 0 1 2-2z" fill="#ffcbbe" transform="matrix(-1 0 0 -1 94 45)"/><g fill="#3e3d42"><path d="m31 14h9l2 6h3v-3c0-3.59-1.46-8.84-3.81-11.19-1.436-1.436-3.209-.54-5.19-1.181-1.26-.408-2.6-1.629-4-1.629-2.164 0-4.2 1.529-6 2.464-2.022 1.054-5.776-1.376-7 .536-1.294 2.021 0 8.423 0 11v3h3l2-6z"/><path d="m27 21a1 1 0 0 0 -1 1v2a1 1 0 0 0 2 0v-2a1 1 0 0 0 -1-1z"/><path d="m37 25a1 1 0 0 0 1-1v-2a1 1 0 0 0 -2 0v2a1 1 0 0 0 1 1z"/></g><path d="m35.59 28.38 9.09 3.5a13.006 13.006 0 0 1 -25.36 0l9.09-3.5a9.988 9.988 0 0 1 7.18 0z" fill="#b4e6ee"/></svg>