<svg id="Avatar" height="512" viewBox="0 0 64 64" width="512" xmlns="http://www.w3.org/2000/svg"><path d="m20 45h24a8 8 0 0 1 8 8v8a0 0 0 0 1 0 0h-40a0 0 0 0 1 0 0v-8a8 8 0 0 1 8-8z" fill="#ffcbbe"/><path d="m20 45h24v16h-24z" fill="#ef8746"/><path d="m32 50a5.658 5.658 0 0 1 -5.648-5.99l.648-11.01h10l.648 11.01a5.658 5.658 0 0 1 -5.648 5.99z" fill="#ffcbbe"/><path d="m47 20h-30l-1-17h7l3 3 3-3h19z" fill="#3e3d42"/><path d="m17 19h2a0 0 0 0 1 0 0v7a0 0 0 0 1 0 0h-2a2 2 0 0 1 -2-2v-3a2 2 0 0 1 2-2z" fill="#ffcbbe"/><path d="m47 19h2a0 0 0 0 1 0 0v7a0 0 0 0 1 0 0h-2a2 2 0 0 1 -2-2v-3a2 2 0 0 1 2-2z" fill="#ffcbbe" transform="matrix(-1 0 0 -1 94 45)"/><path d="m32 41a13 13 0 0 1 -13-13v-9a6 6 0 0 1 2.4-4.8 6 6 0 0 1 3.6-1.2h14a6 6 0 0 1 3.6 1.2 6 6 0 0 1 2.4 4.8v9a13 13 0 0 1 -13 13z" fill="#ffddce"/><path d="m35.59 28.38 8.85 3.4a13 13 0 0 1 -24.88 0l8.85-3.4a9.988 9.988 0 0 1 7.18 0z" fill="#b4e6ee"/><g fill="#3e3d42"><path d="m27 21a1 1 0 0 0 -1 1v2a1 1 0 0 0 2 0v-2a1 1 0 0 0 -1-1z"/><path d="m37 25a1 1 0 0 0 1-1v-2a1 1 0 0 0 -2 0v2a1 1 0 0 0 1 1z"/></g></svg>