<svg id="Avatar" height="512" viewBox="0 0 64 64" width="512" xmlns="http://www.w3.org/2000/svg"><path d="m17 19h2a0 0 0 0 1 0 0v7a0 0 0 0 1 0 0h-2a2 2 0 0 1 -2-2v-3a2 2 0 0 1 2-2z" fill="#ffcbbe"/><path d="m20 45h24a8 8 0 0 1 8 8v8a0 0 0 0 1 0 0h-40a0 0 0 0 1 0 0v-8a8 8 0 0 1 8-8z" fill="#6fc991"/><path d="m32 50a5.658 5.658 0 0 1 -5.648-5.99l.648-11.01h10l.648 11.01a5.658 5.658 0 0 1 -5.648 5.99z" fill="#ffcbbe"/><rect fill="#ffddce" height="38" rx="13" width="26" x="19" y="4"/><path d="m47 19h2a0 0 0 0 1 0 0v7a0 0 0 0 1 0 0h-2a2 2 0 0 1 -2-2v-3a2 2 0 0 1 2-2z" fill="#ffcbbe" transform="matrix(-1 0 0 -1 94 45)"/><path d="m32 3a15 15 0 0 0 -15 15v1h2.5l1.394-2.789a4 4 0 0 1 3.578-2.211h6.528a6 6 0 0 0 6-6 5 5 0 0 0 4 4.9 2.083 2.083 0 0 1 1.487 1.082l2.513 5.018h2v-1a15 15 0 0 0 -15-15z" fill="#3e3d42"/><path d="m35.59 28.38 9.09 3.5a13.006 13.006 0 0 1 -25.36 0l9.09-3.5a9.988 9.988 0 0 1 7.18 0z" fill="#b4e6ee"/><circle cx="32" cy="58" fill="#e8e5fb" r="1"/><path d="m27 21a1 1 0 0 0 -1 1v2a1 1 0 0 0 2 0v-2a1 1 0 0 0 -1-1z" fill="#3e3d42"/><path d="m37 25a1 1 0 0 0 1-1v-2a1 1 0 0 0 -2 0v2a1 1 0 0 0 1 1z" fill="#3e3d42"/><circle cx="32" cy="54" fill="#e8e5fb" r="1"/></svg>