<svg id="Avatar" height="512" viewBox="0 0 64 64" width="512" xmlns="http://www.w3.org/2000/svg"><path d="m20 45h24a8 8 0 0 1 8 8v8a0 0 0 0 1 0 0h-40a0 0 0 0 1 0 0v-8a8 8 0 0 1 8-8z" fill="#4a80aa"/><g fill="#ffcbbe"><path d="m38 48-6 5-6-5v-15h12z"/><path d="m17 19h2a0 0 0 0 1 0 0v7a0 0 0 0 1 0 0h-2a2 2 0 0 1 -2-2v-3a2 2 0 0 1 2-2z"/><path d="m47 19h2a0 0 0 0 1 0 0v7a0 0 0 0 1 0 0h-2a2 2 0 0 1 -2-2v-3a2 2 0 0 1 2-2z" transform="matrix(-1 0 0 -1 94 45)"/></g><rect fill="#ffddce" height="34" rx="13" width="26" x="19" y="7"/><path d="m31 14h9l2 6h3v-3c0-3.59-1.46-8.84-3.81-11.19-1.436-1.436-3.209-.54-5.19-1.181-1.26-.408-2.6-1.629-4-1.629-2.164 0-4.2 1.529-6 2.464-2.022 1.054-5.776-1.376-7 .536-1.294 2.021 0 8.423 0 11v3h3l2-6z" fill="#3e3d42"/><path d="m24 45h-4a8 8 0 0 0 -8 8v8h12z" fill="#365e7d"/><path d="m44 45h-4v16h12v-8a8 8 0 0 0 -8-8z" fill="#365e7d"/><path d="m22 45-2 6h2l-2 4 2 6h5l-1-16z" fill="#e1ecfd"/><path d="m42 45 2 6h-2l2 4-2 6h-5l1-16z" fill="#e1ecfd"/><path d="m35.59 30.38 8.18 3.15a13.016 13.016 0 0 1 -23.54 0l8.18-3.15a9.988 9.988 0 0 1 7.18 0z" fill="#b4e6ee"/><path d="m26 25a1 1 0 0 0 1-1v-2a1 1 0 0 0 -2 0v2a1 1 0 0 0 1 1z" fill="#3e3d42"/><path d="m38 25a1 1 0 0 0 1-1v-2a1 1 0 0 0 -2 0v2a1 1 0 0 0 1 1z" fill="#3e3d42"/><path d="m45 18h-26a1 1 0 0 0 0 2h2v5a3 3 0 0 0 3 3h4a3 3 0 0 0 3-3v-5h2v5a3 3 0 0 0 3 3h4a3 3 0 0 0 3-3v-5h2a1 1 0 0 0 0-2zm-16 7a1 1 0 0 1 -1 1h-4a1 1 0 0 1 -1-1v-5h6zm12 0a1 1 0 0 1 -1 1h-4a1 1 0 0 1 -1-1v-5h6z" fill="#57565c"/></svg>